<?xml version="1.0" encoding="utf-8"?>
<!-- Generator: Adobe Illustrator 27.5.0, SVG Export Plug-In . SVG Version: 6.00 Build 0)  -->
<svg version="1.1" id="Layer_1" xmlns="http://www.w3.org/2000/svg" xmlns:xlink="http://www.w3.org/1999/xlink" x="0px" y="0px"
	 viewBox="0 0 150 150" style="enable-background:new 0 0 150 150;" xml:space="preserve">
<style type="text/css">
	.st0{fill:none;stroke:#0F131F;stroke-width:0.7;}
	.st1{fill:none;stroke:#86711C;stroke-width:0.7;}
	.st2{fill:none;stroke:#887929;stroke-width:0.7;}
	.st3{fill:none;stroke:#55502E;stroke-width:0.7;}
	.st4{fill:none;stroke:#796E2E;stroke-width:0.7;}
	.st5{fill:none;stroke:#7B6612;stroke-width:0.7;}
	.st6{fill:none;stroke:#4A4424;stroke-width:0.7;}
	.st7{fill:none;stroke:#6E6224;stroke-width:0.7;}
	.st8{fill:none;stroke:#7D6E1F;stroke-width:0.7;}
	.st9{fill:none;stroke:#404E38;stroke-width:0.7;}
	.st10{fill:none;stroke:#B7AD35;stroke-width:0.7;}
	.st11{fill:none;stroke:#38392F;stroke-width:0.7;}
	.st12{fill:none;stroke:#4B5A42;stroke-width:0.7;}
	.st13{fill:none;stroke:#1A1E29;stroke-width:0.7;}
	.st14{fill:none;stroke:#2D2E25;stroke-width:0.7;}
	.st15{fill:none;stroke:#C1A321;stroke-width:0.7;}
	.st16{fill:none;stroke:#255C74;stroke-width:0.7;}
	.st17{fill:none;stroke:#978934;stroke-width:0.7;}
	.st18{fill:#1A1E29;}
	.st19{fill:#040715;}
	.st20{fill:#F2C40E;}
	.st21{fill:#565435;}
	.st22{fill:#D7BD33;}
	.st23{fill:#F5D428;}
	.st24{fill:#908133;}
	.st25{fill:#7C955B;}
	.st26{fill:#45B1D2;}
</style>
<g>
	<path vector-effect="non-scaling-stroke" class="st0" d="M0.6,12.9C0.8,9.2,0.9,5.6,0.8,2c0-1.7,0-2.1-0.1-1
		C0.7,2.4,0.2,16.6,0.6,12.9"/>
	<path vector-effect="non-scaling-stroke" class="st1" d="M80.7,16.2c0.8-0.5,6.6-6,3.1-4.2c-7.3,9.4-22.8,5.6-30.2,15.3
		c-2.5,4.1-8.3,1.1-7,3.6c5.3,3.3,8.7-6.6,13.5-7.8C66.2,20.2,75.2,21.1,80.7,16.2"/>
	<path vector-effect="non-scaling-stroke" class="st0" d="M47.7,37c-1.2,0.3-1.9,1-2,2.2"/>
	<path vector-effect="non-scaling-stroke" class="st1" d="M45.7,39.2c-1.9-5.9-9.7-12-2.1-1.4c5.1,10.4-11.1,9.7-12.2,23.9"/>
	<path vector-effect="non-scaling-stroke" class="st0" d="M31.5,61.8c-0.3,0.2-2.9-0.3-2.4,0.6c1.3,3.1,0.6,7.1,0.9,10.2
		c0,0-1.9,1.2-1.9,1.2"/>
	<path vector-effect="non-scaling-stroke" class="st1" d="M28,73.8c-5.4-2.7-5.5,2-2.7,1.6c0.9-1.1,1.6-1.8,2.6-0.2
		c1.6,1.7-0.2,8.2,3,9.8"/>
	<path vector-effect="non-scaling-stroke" class="st0" d="M30.8,85c0.1,0.3-1.9,4.9-0.8,4.5"/>
	<path vector-effect="non-scaling-stroke" class="st2" d="M30,89.5c-0.7,0.5-6.7,4.5-4.2,4.2"/>
	<path vector-effect="non-scaling-stroke" class="st0" d="M25.8,93.8c0.1,1.3,3.1,1.1,3.7,0.5"/>
	<path vector-effect="non-scaling-stroke" class="st1" d="M29.5,94.2c0.6,1.8,2.8-0.5,3.5,2.8c1.4,4.3,3.7,8.1,6.8,11.4"/>
	<path vector-effect="non-scaling-stroke" class="st0" d="M39.8,108.5c-0.8,0.4-0.8,1.3-0.1,1.9c1.8,1.2,1.2,3.3,3,3.2
		c0.5-0.1,0.6,0,0.3,0.4c-1.1,1.2-1,2,0,2.3c1.1,0.6,1.8,1.9,3.3,1c0.7-0.3,1.2-0.3,1.3,0.2c1.2,1.2,3.4,1.1,4.5,2.8"/>
	<path vector-effect="non-scaling-stroke" class="st3" d="M52,120.2l-6.2,5.4c2,0,5.2-2.7,6.3-5.2"/>
	<path vector-effect="non-scaling-stroke" class="st0" d="M52,120.5c4.1-0.2,7,3.1,11,3.7c4.1,0.7,7.8,4.9,11.7,4.4
		c2.5-0.2,5.4,1.7,7.6,0.6c0.3-0.1,0.6,0.1,0.8,0.4c1,1.8,4,0.4,5.4,2.2"/>
	<path vector-effect="non-scaling-stroke" class="st1" d="M88.5,131.8c11.9,3.4,24.7-17.7,24.6-9.5"/>
	<path vector-effect="non-scaling-stroke" class="st0" d="M113,122.2l-0.5,1.7"/>
	<path vector-effect="non-scaling-stroke" class="st3" d="M112.5,124c-2.2,1.3-2.1,1.7,0.2,1"/>
	<path vector-effect="non-scaling-stroke" class="st0" d="M112.8,125c3.5,1.8,1.2-3.5,3.5-1.8c10.5-4.3,21.9-31.2,16.8-40.4"/>
	<path vector-effect="non-scaling-stroke" class="st1" d="M133,82.8c-0.1-0.4-0.2-0.8-0.5-1"/>
	<path vector-effect="non-scaling-stroke" class="st0" d="M132.5,81.7c-0.7-0.3-0.4-1.3-1-1.6c-1.1-0.5-1.1-1.1-0.2-1.9
		c0.2-0.2,0.3-0.5,0.1-0.7c-0.4-0.7-1.7-0.6-1.8-1.4c0.1-1.9-0.4-4.9,0.7-6.9c2.3-5.2,3.8-9.7,1.7-14.6"/>
	<path vector-effect="non-scaling-stroke" class="st4" d="M132,54.7c1.1-0.6,1.1-1-0.1-0.9c-2.7,0.7-4.8,3.5-7.4,4.1
		c-0.4-0.2-0.6-0.5-0.6-1c-0.3-1.1-1.5,0.6-1.3,1.4"/>
	<path vector-effect="non-scaling-stroke" class="st0" d="M122.5,58.2c-1.6-1.1-3-2.4-4-4"/>
	<path vector-effect="non-scaling-stroke" class="st4" d="M118.5,54.2c0.9-1.1,0.8-1.6-0.5-1.7"/>
	<path vector-effect="non-scaling-stroke" class="st0" d="M118,52.5c-0.5-0.5-2.6-1.4-2.6-2.2c-1.8-4.8-5.6-7.9-9.1-11.3"/>
	<path vector-effect="non-scaling-stroke" class="st3" d="M106.2,39c-0.1-0.9-1.4-1.2-1.3-2.1c0.3-1.1-0.2-1.7-1.4-1.7"/>
	<path vector-effect="non-scaling-stroke" class="st0" d="M103.5,35.2c-0.2-1.7-1.1-2.9-2.5-3.8"/>
	<path vector-effect="non-scaling-stroke" class="st1" d="M101,31.5c0.5-3.8,4.2-8.2,5.6-10.1c-2.8,1.5-4.8,3.7-5.8,6.8"/>
	<path vector-effect="non-scaling-stroke" class="st0" d="M100.8,28.2c0.4-2.6-3.7-3.7-4.4-4.8c-1.2-1.6-2.6-0.6-4-1
		c-0.4-0.7-3.6-2.6-1.9-3.4"/>
	<path vector-effect="non-scaling-stroke" class="st1" d="M90.5,19c1.8-4.2-1.5-2.7-3.4-2.2c-4.9,0.8-8.9,3.3-11.8,7.4
		c-1.7,2.4-3.4,2.6-5,0.7c-8.9-8.8-13.4,9.6-22,10.3c-1.1-1.7-1.2-1.2-0.5,1.7"/>
	<path vector-effect="non-scaling-stroke" class="st5" d="M90.5,19c-9.6-4.5-12.7,10.5-19.8,8.6C65.6,22,63.1,23,58,29.4
		c-2.4,3.3-6.5,5-9.3,7.6c-0.2,2.5,2.4,9.3,4.2,4c0.2-2,1.1-3.4,2.6-4.1c1.4-0.7,1.2-0.2-0.8,1.6c-2.6,8.4-6.5,5.6-7.1-1.4"/>
	<path vector-effect="non-scaling-stroke" class="st5" d="M100.8,28.2c-0.5,2.3-1.9,3.9-3.5,5.4c-0.6,2,3.7-1.1,3.8-2.2"/>
	<path vector-effect="non-scaling-stroke" class="st6" d="M103.5,35.2c0,1.9,0.9,3.2,2.7,3.8"/>
	<path vector-effect="non-scaling-stroke" class="st7" d="M118,52.5c-1.3,1.1-1.1,1.6,0.5,1.7"/>
	<path vector-effect="non-scaling-stroke" class="st7" d="M122.5,58.2c-1.2,3.8-6.5,5.3-9.6,7.5c3,0,8-3.1,10.4-6.2
		c3.4-0.7,5.5-3.7,8.6-4.9"/>
	<path vector-effect="non-scaling-stroke" class="st5" d="M132.5,81.7c-2.3,3.6-0.9,20.9-9.4,20.4c-0.2,0.1-8.1-3.6-7.3-1.5
		c4.9,1.5,8.8,2.7,3.5,7.3c-0.4,0.4-0.3,0.6,0.1,0.6c1-0.9,1.3-2.4,2.9-3.5c8.3-2.8,10-14.9,10.7-22.2"/>
	<path vector-effect="non-scaling-stroke" class="st6" d="M112.8,125c0.6-0.7,0.5-1-0.2-1"/>
	<path vector-effect="non-scaling-stroke" class="st5" d="M113,122.2c2.1,1.8-0.3-2.9,0.3-3.3c0,0,4.1-5.4,4.1-5.4
		c0.4-0.6,0-1.6-0.5-0.3c-1.2,2-3.4,4.3-6.9,7c-5.6,6.8-12.9,9.7-21.5,11.5"/>
	<path vector-effect="non-scaling-stroke" class="st6" d="M52,120.5l-0.1-0.2"/>
	<path vector-effect="non-scaling-stroke" class="st5" d="M39.8,108.5c2.7-1.6,0.6-1.7-0.7-2.7c-3.9-3-3.4-13.1-9.5-11.6"/>
	<path vector-effect="non-scaling-stroke" class="st8" d="M25.8,93.8c4.7-4,10-6.5,16.1-7.6c1.9-0.3,2.2-0.6,0.8-0.9
		c-4.5,0.2-8.8,1.9-12.6,4.2"/>
	<path vector-effect="non-scaling-stroke" class="st5" d="M30.8,85c1.8,0.2,1.8-0.3,0.1-1.6c-1.9-2.8-0.4-7.3-3-9.7"/>
	<path vector-effect="non-scaling-stroke" class="st5" d="M31.5,61.8c-0.3,5-0.3,9.8,4.5,12.5"/>
	<path vector-effect="non-scaling-stroke" class="st9" d="M36,74.3c1.1,0.7,1.9,1.7,2.8,2.5c0.9-0.5-1.3-2.3-2.5-2.8"/>
	<path vector-effect="non-scaling-stroke" class="st5" d="M36.3,74c-5.9-4.3-4.3-13.6-1.7-18.9c1.8-6.4,13.8-7.9,11.1-15.8"/>
	<path vector-effect="non-scaling-stroke" class="st10" d="M36.3,74c0,0.2-0.1,0.2-0.3,0.3"/>
	<path vector-effect="non-scaling-stroke" class="st11" d="M100.7,21.8c0.7-0.2,2.9-2.9,1.1-1.5C99.3,22.1,99,22.6,100.7,21.8"/>
	<path vector-effect="non-scaling-stroke" class="st1" d="M52.9,23.4c1.3,0.4,0.6-1.5-0.2-1.3C51.6,22.1,52.2,23.4,52.9,23.4"/>
	<path vector-effect="non-scaling-stroke" class="st11" d="M111.5,36.8c-2-2.6-7.8-7.4-7.2-5.5c2.8,1.3,5.5,3.3,6.8,6.3
		C111.3,39,112.1,37.2,111.5,36.8"/>
	<path vector-effect="non-scaling-stroke" class="st1" d="M114.2,32.5c0.5-1.7-2.5-2.5-2.9-0.8C110.8,33.4,113.8,34.2,114.2,32.5"/>
	<path vector-effect="non-scaling-stroke" class="st12" d="M40.2,37.9c0-0.5-2.5-2.6-1.9-1.1c1,0.5,2.6,3.4,3.4,3
		C41.7,39.5,40.4,38.5,40.2,37.9"/>
	<path vector-effect="non-scaling-stroke" class="st11" d="M114.8,41.7c-0.5-0.8-2.8-1.9-2.3-1.1c2.8,1.8,4.8,4.3,5.9,7.4
		C120.3,49,116.1,42.7,114.8,41.7"/>
	<path vector-effect="non-scaling-stroke" class="st11" d="M122.4,43.5c1.1-0.1,1.5-1.5,0.5-1C121.1,43.6,120.9,43.9,122.4,43.5"/>
	<path vector-effect="non-scaling-stroke" class="st3" d="M40.4,44.1c-4.9-2.3-8.6,10.6-6.5,6.7C36.2,43,42.9,45.4,40.4,44.1"/>
	<path vector-effect="non-scaling-stroke" class="st4" d="M127.4,47.8c0.7-1.4-3.1-0.6-0.8,0.1C127,48,127.3,48,127.4,47.8"/>
	<path vector-effect="non-scaling-stroke" class="st11" d="M122.7,50.3c0.4,0.1,1.1-0.8,0.5-1C122.8,49.1,121.7,50.4,122.7,50.3"/>
	<path vector-effect="non-scaling-stroke" class="st0" d="M0.6,58.1c0-3.5,0-5.9-0.1-7.3c-0.4,5.5-0.3,14.1-0.1,20.6
		C0.6,70.2,0.5,64.9,0.6,58.1"/>
	<path vector-effect="non-scaling-stroke" class="st13" d="M129,51.7c1.7-1.1,1.7-1.4,0-0.6C128.4,51.2,128.2,52.2,129,51.7"/>
	<path vector-effect="non-scaling-stroke" class="st0" d="M0.6,110.5c0-0.1-0.1-0.2-0.2-0.2c-0.1,0-0.2,0.1-0.2,0.2l0,0
		c0.2,0.2-0.3,21.5,0.2,21.5c0.1,0,0.2-0.1,0.2-0.2V110.5"/>
	<path vector-effect="non-scaling-stroke" class="st3" d="M59,127.7c0.6,0.5,2.1-0.3,1-0.5C58.1,127.1,57.8,127.2,59,127.7"/>
	<path vector-effect="non-scaling-stroke" class="st3" d="M106.8,128.1c-3.9,4-3.7,4,0.5,0C107.9,126.9,107.4,127.2,106.8,128.1"/>
	<path vector-effect="non-scaling-stroke" class="st13" d="M63.7,129.2c0.1,1.8,1.2-0.2,0.5-0.7C63.8,128.3,63.6,128.8,63.7,129.2"
		/>
	<path vector-effect="non-scaling-stroke" class="st11" d="M68.5,131.2c6.5-3.8-2.1-0.5-2.1,2.2C66.7,134.3,67.9,131.6,68.5,131.2"
		/>
	<path vector-effect="non-scaling-stroke" class="st12" d="M98.1,133.7c2.7-1.1-2.3-0.8-1.5,0C97.1,134,97.5,134,98.1,133.7"/>
	<path vector-effect="non-scaling-stroke" class="st7" d="M85.7,27.2C85.6,28.9,84,23.2,84,27c0.1,5.5-4.8,7-8.3,10
		c-0.9,2.8,10.1-6.1,10.2-8c0.9-1.6,1.3-4.9,1.6-6.7C86,22.9,85.9,25.8,85.7,27.2"/>
	<path vector-effect="non-scaling-stroke" class="st14" d="M90.7,27.4c-1.2-0.8-3.2,1.1-1.9,1.2c0.2-0.2,3-0.8,2.5-1.4
		C90.9,26.8,91,27.5,90.7,27.4"/>
	<path vector-effect="non-scaling-stroke" class="st7" d="M58.4,41.8c-3.1,2.6-2.8,2.7,0.9,0.2c0.4-0.3,0.7-0.8,0.7-1.3
		c0-3.5,1.5-5.4,4.8-5.6c3.9,0,4.4-5.9,1.4-7.5c-1.3-0.6-1,0.4,0.1,1.3c2,2.5,0,5.5-2.6,5.3C59.5,34.9,59.6,38.5,58.4,41.8"/>
	<path vector-effect="non-scaling-stroke" class="st0" d="M80.4,28.9c3.4,0.8-0.9-2.1-1.6,0.7C78.8,30.8,79.5,28.2,80.4,28.9"/>
	<path vector-effect="non-scaling-stroke" class="st8" d="M54.9,35.3c0.5-0.7,12.3-2.7,10.1-4.2C63.1,32.5,55.2,32.4,54.9,35.3"/>
	<path vector-effect="non-scaling-stroke" class="st6" d="M86.6,31.4c0.5-2.1-3.5,3.9-4.7,4.1C82.9,35.6,85.9,33.1,86.6,31.4"/>
	<path vector-effect="non-scaling-stroke" class="st6" d="M95.4,32.4c0.4,0.1,0.5,0,0.2-0.3c-0.3-0.8-3.6-1.2-2.8-0.4
		C92.7,31.6,95.4,32.4,95.4,32.4"/>
	<path vector-effect="non-scaling-stroke" class="st0" d="M73,36.2C75.6,34.4,75.6,34.4,73,36.2C72.4,36.6,72.5,36.6,73,36.2"/>
	<path vector-effect="non-scaling-stroke" class="st9" d="M96.3,38.9c-1.7-0.9-9.3-4-7.8-2.1c3,0.8,6,1.6,8.5,3.4
		C98,40.6,96.9,39.1,96.3,38.9"/>
	<path vector-effect="non-scaling-stroke" class="st8" d="M56.9,50.8c-1.9,2.7-7.1,5.8-6.4,9.4c2.2-3.4,5-7.7,9.4-8.7
		c0.8-2.2,2.3-3.8,4.6-4.7c0.9-0.3,1-0.5,0.3-0.5c-1.4,0.3-6.9,5.2-5.4,1.1c2.6-3.4,5.9-5.8,9.9-7.1c1.1-0.4,1-0.5-0.5-0.3
		c-7.7,1-12.6,8.3-17.5,13.6c-1.9,2.9-5,6.8-3.3,10.4c0.8,1.1,1,1,0.6-0.3C46.4,61.1,55.4,47.9,56.9,50.8"/>
	<path vector-effect="non-scaling-stroke" class="st7" d="M81.5,41.1c0.3-1.1-1-1.4-1.2-0.4c-0.1,0.7-0.7,5.2,0.9,3.6
		C81.3,43.2,81.3,42.1,81.5,41.1"/>
	<path vector-effect="non-scaling-stroke" class="st7" d="M113.3,51.9c-3.4-4.9-9.8-11.3-13.6-11.2c8.5,4.3,14.1,12.3,17.8,20.8
		C118.6,59.7,115.2,55.1,113.3,51.9"/>
	<path vector-effect="non-scaling-stroke" class="st14" d="M89.1,42.4c0.8-0.4,0.4-0.4-1.3,0c-1.2,0.3-1,0.4,0.7,0.2
		C88.7,42.6,88.9,42.5,89.1,42.4"/>
	<path vector-effect="non-scaling-stroke" class="st9" d="M102.4,46.1c-0.5-0.8-4.6-3.8-4.3-2.3c2.8,1.9,9.9,6.4,4.3,10.2
		c-0.1,0.5,0.1,0.5,0.4,0.2C107.6,49.8,105.6,50.3,102.4,46.1"/>
	<path vector-effect="non-scaling-stroke" class="st5" d="M64.6,88.8c12,1.8,7.6-15,8-21.1c-1.8-6.5-7.2-3.1-9.3-5.3
		c0.2-0.5-0.7-3.9,0.6-3.7c13.4-0.1,10.2,1.7,10.6-11.4c-0.1-1.3,0.5-1.9,1.8-1.7c2.1,2.9,0,8.2,0.9,11.6c1.8,1.6,1-10,1.2-11.5
		c-0.2-2.2-5.2-2.5-5.5-0.7c-1,13.6,4,12.2-9.3,12.1c-3.4-0.4-2.5,4.4-2.4,6.2c0.7,3.2,7,0.3,8,4.7c0.1,2.2,2.8,19.6-3.2,17.9
		c-2.4-0.4-3.7,0.1-3.7,1.6c-0.5,9.4,0.3,6.9,8.9,7.2c3.8,0.3,0.3,6.8,2.5,10.9c1.6,0.8,4.2,0.6,4.7-1.2c-0.4-2.6,1.2-10.8-0.8-11.7
		c-0.6,2.6-0.2,5.6,0,9.4c0.1,1.3-0.5,2-1.8,2.2c-2.5,0.5-0.6-8.7-1-10.5c0.5-1.1-9.7-0.5-10-0.8c-1.1,0.2-0.5-3.3-0.7-3.8
		C64,89,64.3,88.8,64.6,88.8"/>
	<path vector-effect="non-scaling-stroke" class="st6" d="M81,71.2c-0.2-0.6-0.6-1-1.2-1.2"/>
	<path vector-effect="non-scaling-stroke" class="st5" d="M79.8,70c-0.6-2.5,0.2-6.1-1-8c-0.9-0.2-0.3,9.9-0.5,10.2
		c0,0.3,0.2,0.5,0.5,0.5c0,0,18.5,0,18.5,0c13.3,4.4,5.1,24.6-8.5,20.4c-2.6-0.4-1,7.7-1.5,9.8c0.4,1.7-2.3,2.2-2.9,0.7
		c0-3,0-6-0.1-9c-1.2-6.6-2.2,10.5-0.9,10.9c1.3-0.2,5.2,1.8,5.5-0.6c0,0,0.2-8.9,0.3-9c1-2,8,0.7,10.9-2.6
		c6.9-4.6,9.2-18.3-0.3-21.5c-1.1-1,3-4.5,2.2-6.9c-0.5-6.5-8-8.3-13.2-8.9c-0.1-0.3,0.2-11.3-0.4-11.3c-1.2-1-4.6-1.5-5.6-0.4
		c-1.1,4.1,1.2,8.7-0.9,12.1c-0.4,0.6-0.4,0.9,0,0.8c0.3-0.1,0.8-0.8,1.5-2.3c0.5-0.5,0.4-7.6,0.5-8.4c0-1.2,2.5-1.1,2.5,0
		c-0.1,3.5,0.1,6.2-0.1,9.7C85.8,61.4,97.1,55,99,64.4c2.6,6.7-11,8.4-6.6,5.7c1.5-0.8,2.2-2.1,2.1-3.9c-0.9,1-2.8,5-5.6,5
		c-1.4,0-1.6-0.4-0.5-1.4c2-1.8,1.9-3.3-0.5-4.6c-0.2-0.8-10.6-0.7-7.4,0.9c10.7-2.4,11.1,6.2,0.5,5"/>
	<path vector-effect="non-scaling-stroke" class="st15" d="M79.8,70c-1,1.8-0.6,2.2,1.2,1.2"/>
	<path vector-effect="non-scaling-stroke" class="st6" d="M49.9,50.1c1.5,2.3-0.3-2.8-0.8-3.5c-0.4-1-0.6-1.1-0.6-0.4
		C48.5,46.6,49.9,48.9,49.9,50.1"/>
	<path vector-effect="non-scaling-stroke" class="st0" d="M64.5,49c1-1,4.4-0.8,4.5-1.7C68.3,46.5,62.4,49.6,64.5,49"/>
	<path vector-effect="non-scaling-stroke" class="st0" d="M81.2,50.8c-0.7-0.3-0.3-3.3-0.8-2.3C79.3,51.2,83,52.2,81.2,50.8"/>
	<path vector-effect="non-scaling-stroke" class="st8" d="M36.7,54.2c-3.8,5.5-5.2,17.7,3.6,19.4c0.7,0.3,1.9-0.8,2.5-1
		c-11.9,1.4-9.9-19.4,0.1-22.2C41.2,49.4,37.6,52.7,36.7,54.2"/>
	<path vector-effect="non-scaling-stroke" class="st0" d="M99.9,50.9c-0.7-0.7-1.1-0.8-1.1-0.4C98.8,51.5,101.8,52.4,99.9,50.9"/>
	<path vector-effect="non-scaling-stroke" class="st6" d="M107.8,52c-0.2-0.6-0.8-0.2-0.4,0.2C109.4,54.4,108.9,53.8,107.8,52"/>
	<path vector-effect="non-scaling-stroke" class="st14" d="M38.8,54.8c-0.5,0.3-2.3,3.6-1.1,2.6c0.9-2.8,6-5.8,6.3-1.6
		c-0.7,0.9-0.6,1,0.2,0.4C46.8,53.5,39.9,52.2,38.8,54.8"/>
	<path vector-effect="non-scaling-stroke" class="st6" d="M67.6,55.8c0.4-0.1,0.5-0.9,1.1-0.9c0.5-0.1,0.7-0.3,0.7-0.6
		C68.9,53,66.5,55.3,67.6,55.8"/>
	<path vector-effect="non-scaling-stroke" class="st6" d="M104.1,54.8c-0.3,0.8-2.4,1.3-1.7,1.7C102.9,57.3,105.3,53.5,104.1,54.8"
		/>
	<path vector-effect="non-scaling-stroke" class="st9" d="M98.2,55.8c-0.8-0.6-2.6-1.7-3.5-1.5c1.2,1.3,3.6,1.8,4.7,3.5
		C100.8,58.5,99.4,56.5,98.2,55.8"/>
	<path vector-effect="non-scaling-stroke" class="st9" d="M110.2,57.3c0.7,0.6,2.2,5.6,2.6,4.2C113,59.9,108.9,54.6,110.2,57.3"/>
	<path vector-effect="non-scaling-stroke" class="st0" d="M108.3,65.2c0.9,3.9,1.3,7.9,0.6,11.8c-0.3,1-0.1,1.2,0.3,0.6
		c1.2-4.1,0.6-8.4-0.5-12.4"/>
	<path vector-effect="non-scaling-stroke" class="st6" d="M108.8,65.2c0.4-1.2-4.3-9.9-3.9-7.1c1.6,2.1,2.7,4.5,3.4,7.1"/>
	<path vector-effect="non-scaling-stroke" class="st3" d="M108.8,65.2l-0.5,0"/>
	<path vector-effect="non-scaling-stroke" class="st7" d="M55.3,59.2c-5.8,9.9-5,27.8,0.5,33.5c-5.1-10.9-5.2-21.9-0.2-32.9
		C56.5,57.9,55.8,58.3,55.3,59.2"/>
	<path vector-effect="non-scaling-stroke" class="st6" d="M43.2,61.9c-0.9,1-3.3,3.9-3,4.4C41.1,65.6,45.6,59.7,43.2,61.9"/>
	<path vector-effect="non-scaling-stroke" class="st16" d="M59.1,62.1c-1.3,0.9-0.8,1.7,0.1,0.8C60.2,61.5,60.1,61.2,59.1,62.1"/>
	<path vector-effect="non-scaling-stroke" class="st14" d="M125.2,67.3c-1.5,0.3-2.1,2.5-0.8,3.1c0.4,0,0.6-0.5,0.4-1.4
		c0.8-1.9,3.1-3,3.7-5.2c0.7-1.7,0.6-2-0.4-0.8C127.3,64.5,126.9,66.5,125.2,67.3"/>
	<path vector-effect="non-scaling-stroke" class="st7" d="M50.1,64.6c-0.8,2.2-2.7,6-1.7,7.9c0.7-2.7,1.3-5.5,2.2-8.2
		C50.5,62.1,50.4,63.2,50.1,64.6"/>
	<path vector-effect="non-scaling-stroke" class="st7" d="M47.2,65.2c-0.7-1.7-1.1-0.5-0.7,0.3c1.1,2.5,1.4,2.6,0.9,0.2
		C47.3,65.5,47.3,65.3,47.2,65.2"/>
	<path vector-effect="non-scaling-stroke" class="st6" d="M119.3,69.1c0,1.1,1.2,6.5,1.4,2.4c0-1.2-0.4-3.2-1.1-5.8
		c-0.1-0.3-0.2-0.3-0.3,0C119.1,66.8,119.1,68,119.3,69.1"/>
	<path vector-effect="non-scaling-stroke" class="st6" d="M117.2,68.3c0.9,3.8,0.3,9.4,0.3,12.2C120.4,78.1,117.3,61.5,117.2,68.3"
		/>
	<path vector-effect="non-scaling-stroke" class="st0" d="M104.3,68.3c-0.5,0.5,0.2,3.4,0.4,2.2C104.7,70.3,104.8,66.7,104.3,68.3"
		/>
	<path vector-effect="non-scaling-stroke" class="st7" d="M45.9,72.3c-1.1,3.9-1.2,7.2-0.4,9.7c1,1.7,0.5,7.3,1.2,4.8
		c-0.2-7.1-2.2-8,0.2-17.1c0.3-1.2,0-1.7-0.6-1.6C45.2,69,46.6,71,45.9,72.3"/>
	<path vector-effect="non-scaling-stroke" class="st0" d="M113.6,74.6c0.1-7-0.1-6.6-0.5,1.3c0,0.4,0.1,0.5,0.4,0.3
		C114,76,113.5,74.7,113.6,74.6"/>
	<path vector-effect="non-scaling-stroke" class="st6" d="M125.4,73.7c-3.3,7.9,0.7,4.2,0.5,0.1C126,73.5,125.4,73.3,125.4,73.7"/>
	<path vector-effect="non-scaling-stroke" class="st7" d="M119.9,75.9c-0.1,1.8-1.1,3.8-0.6,5.5C121.2,81.8,120.7,70.6,119.9,75.9"
		/>
	<path vector-effect="non-scaling-stroke" class="st6" d="M79.8,76.5c5.9-1.2,5.7-1.4-0.6-0.5C77.7,76.8,78.3,77.4,79.8,76.5"/>
	<path vector-effect="non-scaling-stroke" class="st6" d="M48,76.3c0.3-2.7-1.6,4-0.2,4.8C48.2,80.4,47.5,77,48,76.3"/>
	<path vector-effect="non-scaling-stroke" class="st7" d="M34.2,78.9c2.2-1.7-2.6-2.2-0.7-0.1C33.6,79,34,79.1,34.2,78.9"/>
	<path vector-effect="non-scaling-stroke" class="st5" d="M91.5,78.6c-3.7-1.2-9.7-1.7-13.2,0.2c0,0-0.3,8.1-0.3,8.1
		c0.9,3.1,16.4,1.2,18-1c4.9-2.7-3-12-2.2-7.2c1.8,7.8-6.3,7.6-11.9,7.3c-1,0-1.9-0.7-2-1.5c0.1-1.3-1.8-5.5,0.7-5.7
		c3.9,0.1,7.8-0.8,10.8,0.9c3.3,4.5-4.3,4.1-6.8,4.6C87.6,86.6,96.5,83.2,91.5,78.6"/>
	<path vector-effect="non-scaling-stroke" class="st6" d="M37,83c-1.4,1.3-2.3,1-2.8-0.9c-0.5-2-0.8-2.3-1-0.7
		C33.2,83.7,36.7,86.1,37,83"/>
	<path vector-effect="non-scaling-stroke" class="st14" d="M37,83l4.5-3.3C42.1,78.6,37.4,81.9,37,83"/>
	<path vector-effect="non-scaling-stroke" class="st14" d="M113,81.5c-1.1-0.8,0.1-3.1-1.4-2.2C110.2,80.5,113.8,83.1,113,81.5"/>
	<path vector-effect="non-scaling-stroke" class="st14" d="M126.5,80.6c-1.8,1.4-0.1,1.2,0.5,0.4C128.2,78.6,127.6,79.3,126.5,80.6"
		/>
	<path vector-effect="non-scaling-stroke" class="st7" d="M125.8,84.8c-1.2-0.3-2.8-3.2-3.3-2.9c-0.8,1.4,4.3,5,6.2,3.8
		C131.8,82.2,128.1,86,125.8,84.8"/>
	<path vector-effect="non-scaling-stroke" class="st0" d="M108.6,84.5c0.1-1.4,0-1.4-0.3-0.1C108.3,85.2,108.5,85.8,108.6,84.5"/>
	<path vector-effect="non-scaling-stroke" class="st0" d="M57.2,85.8c-0.2-0.5,1.1,5.4,1.5,3.2C58.6,88.2,56.7,82.1,57.2,85.8"/>
	<path vector-effect="non-scaling-stroke" class="st8" d="M97.6,110.5c8.2-4.6,17.5-12.5,20.2-22.1c-5,7.9-10.1,15.8-18.4,19.8
		c-3.1,0.5-6.1,8.8-7.4,4.4c-0.3-0.6,1.3-2.8,0.5-2.5c-2.4,1.4-1.9,4.2,0.5,4.9C95.2,114.8,95.5,111.2,97.6,110.5"/>
	<path vector-effect="non-scaling-stroke" class="st6" d="M124.2,92.1c-1.7,2.1-3.3-3.6-6.1,0.3c-1.3,1.5-1.1,1.6,0.5,0.2
		c1-0.9,2.5-0.7,4.3,0.6c3.1,1,2.4-5-0.4-3.9C122.9,90.2,125,90.8,124.2,92.1"/>
	<path vector-effect="non-scaling-stroke" class="st9" d="M104.8,91.2c-0.7,0.5-3.3,3.1-2.2,2.9C103.6,93.7,106.4,90.4,104.8,91.2"
		/>
	<path vector-effect="non-scaling-stroke" class="st6" d="M109.7,90.4c-0.1,0.6-0.7,1.6-1.8,3.2c-0.6,0.9-0.6,1,0.1,0.4
		c0-0.2,2.8-2.6,2.2-4C109.9,89.8,109.7,89.9,109.7,90.4"/>
	<path vector-effect="non-scaling-stroke" class="st6" d="M112.1,93.8c-0.9,0.9-1.2,1.3-0.8,1.3c0.3,0,0.5-0.2,0.8-0.5
		C112.9,93.3,112.9,93,112.1,93.8"/>
	<path vector-effect="non-scaling-stroke" class="st7" d="M55.8,102.2c1.5,1.4,1.6,1.3,0.2-0.2c-2.2-2-3.8-5.5-6-8.4
		C47.7,92.4,54.5,101.5,55.8,102.2"/>
	<path vector-effect="non-scaling-stroke" class="st6" d="M39.2,96.4c2.2,0.7-0.9-1.9-1.2-2.5C36.9,93.5,37.9,96.4,39.2,96.4"/>
	<path vector-effect="non-scaling-stroke" class="st7" d="M107.7,98.3c-2.1,3.6-5.9,5.9-9,8.1c3.9-1.2,8.9-5.2,9.9-9.2
		C108.2,96.8,107.9,98.1,107.7,98.3"/>
	<path vector-effect="non-scaling-stroke" class="st9" d="M96.1,98.1c-0.7-0.4-1.7,0.1-1,0.6C96.8,98.9,97.6,98.7,96.1,98.1"/>
	<path vector-effect="non-scaling-stroke" class="st9" d="M45.4,106.6c0.4,0.4,1.6,0.6,0.7-0.1c-2.9-2.2-4.8-5-6.4-7.8
		C38.7,100.1,43.5,105,45.4,106.6"/>
	<path vector-effect="non-scaling-stroke" class="st6" d="M125.4,99.4c1.1-1.4-1.3-0.2-1.5,0.3C122.6,101.6,125.2,100.3,125.4,99.4"
		/>
	<path vector-effect="non-scaling-stroke" class="st7" d="M80.7,105l0.1,9.5c1.5,1.6,1.2-9.4,0.2-9.8"/>
	<path vector-effect="non-scaling-stroke" class="st14" d="M81,104.7c0.3-5.5-1.3-4-0.3,0.3"/>
	<path vector-effect="non-scaling-stroke" class="st17" d="M81,104.7c-0.2,0-0.2,0.1-0.3,0.3"/>
	<path vector-effect="non-scaling-stroke" class="st0" d="M94.3,103.6c1.5-1.2,1.4-1.3-0.4-0.4c-0.2,0.1-0.4,0.3-0.3,0.5
		c0,0,0,0,0,0C93.7,103.9,94,103.8,94.3,103.6"/>
	<path vector-effect="non-scaling-stroke" class="st5" d="M114.7,108.6c3.2,6.9,10.3-1,7.8-0.1c-6.4,6.4-7-6.6-14.1-3
		c-0.3,0.3-0.1,0.4,0.6,0.3C111.6,105.5,113.3,106,114.7,108.6"/>
	<path vector-effect="non-scaling-stroke" class="st14" d="M50,106.6c1.1,1.3,4.2,3.4,4.7,2.8C54.5,109.4,47.7,104.1,50,106.6"/>
	<path vector-effect="non-scaling-stroke" class="st9" d="M74.3,112.2c-3-0.4-7-3.4-10.9-4.9C63,108.7,77.4,114.3,74.3,112.2"/>
	<path vector-effect="non-scaling-stroke" class="st8" d="M56.7,112.8c3.3,2,5.5,0.9,8.8,1.9c1.5-0.2,1.3-0.4-0.5-0.7
		c-4.3-0.6-8.4-1.9-12.1-4.1c-8.5-6.2-11.8,4.8-3.2,6.8c11.8,3.3,21.2,13.4,33.2,7.2c1.1-1,0.9-1.1-0.8-0.3
		c-11.3,5.1-24.7-6-35.2-9.4c-2.2-1.9-2.4-3.5-0.5-4.8C49.8,107.4,53.5,112.2,56.7,112.8"/>
	<path vector-effect="non-scaling-stroke" class="st7" d="M107.2,110.9c-0.4,2.8-1.6,5-3.6,6.5c-0.2,0.2,0,0.4,0.3,0.3
		c4.9-2,2.6-6.7,4.9-8.1c1-0.1,1.6-0.3,1.6-0.6C109.4,107.7,107.1,109.5,107.2,110.9"/>
	<path vector-effect="non-scaling-stroke" class="st14" d="M125.2,109.7c-0.3,2.1,1.3,0,0.6-0.7
		C125.5,108.9,125.3,109.1,125.2,109.7"/>
	<path vector-effect="non-scaling-stroke" class="st0" d="M119.9,114.6c-0.1,0.2-0.2,0.4-0.2,0.7c-0.2,1.3,1.8-1.8,2-1.8
		C123.3,111.2,119.8,113.4,119.9,114.6"/>
	<path vector-effect="non-scaling-stroke" class="st16" d="M97.8,115.6c0.9,0.1,4.2-3.5,2.4-2.1C99.7,114.3,95.5,116.5,97.8,115.6"
		/>
	<path vector-effect="non-scaling-stroke" class="st8" d="M69.6,120.4c-4.9-0.3-9.9-2.4-14.9-5.2c-1.9-0.3-1.9-0.1-0.2,0.7
		c11.9,7.3,23.8,7.4,35.6-0.2c0.9-0.5,0.1-0.7-0.4-0.4C83.2,119.4,76.5,121.1,69.6,120.4"/>
	<path vector-effect="non-scaling-stroke" class="st16" d="M90.6,119.6c-0.4-0.6,7.7-3.6,5.2-3.3c-3.4,1.6-6.5,3.6-9.5,5.8
		C86.5,122.9,89.9,120.7,90.6,119.6"/>
	<path vector-effect="non-scaling-stroke" class="st6" d="M104.4,119.7c0.8-0.4,5.1-3.3,3.6-3.3
		C107.2,116.9,101.1,121.5,104.4,119.7"/>
	<path vector-effect="non-scaling-stroke" class="st9" d="M97.3,119.4c2.8-1.7,2.5-1.7-0.8,0.1C95.8,120.5,97.1,119.8,97.3,119.4"/>
	<path vector-effect="non-scaling-stroke" class="st0" d="M98.7,122.6c0.3,0.3,2.4,0.5,1.6-0.2C100.2,122.1,97.9,121.9,98.7,122.6"
		/>
	<path vector-effect="non-scaling-stroke" class="st6" d="M88.3,125.7c2-0.7,5-2.2,7-1.2c0.5,0.4,1.4,0.1,0.5-0.4
		c-2-1.1-7.1,0.1-8.4,2C87.2,127.7,87.7,126.1,88.3,125.7"/>
</g>
<path class="st18" d="M0,0h150v150H0V0z M0.6,12.9C0.8,9.2,0.9,5.6,0.8,2c0-1.7,0-2.1-0.1-1C0.7,2.4,0.2,16.6,0.6,12.9z M80.7,16.2
	c0.8-0.5,6.6-6,3.1-4.2c-7.3,9.4-22.8,5.6-30.2,15.3c-2.5,4.1-8.3,1.1-7,3.6c5.3,3.3,8.7-6.6,13.5-7.8
	C66.2,20.2,75.2,21.1,80.7,16.2z M47.7,37c-1.2,0.3-1.9,1-2,2.2c-1.9-5.9-9.7-12-2.1-1.4c5.1,10.4-11.1,9.7-12.2,23.9
	c-0.3,0.2-2.9-0.3-2.4,0.6c1.3,3.1,0.6,7.1,0.9,10.2c0,0-1.9,1.2-1.9,1.2c-5.4-2.7-5.5,2-2.7,1.6c0.9-1.1,1.6-1.8,2.6-0.2
	c1.6,1.7-0.2,8.2,3,9.8c0.1,0.3-1.9,4.9-0.8,4.5c-0.7,0.5-6.7,4.5-4.2,4.2c0.1,1.3,3.1,1.1,3.7,0.5c0.6,1.8,2.8-0.5,3.5,2.8
	c1.4,4.3,3.7,8.1,6.8,11.4c-0.8,0.4-0.8,1.3-0.1,1.9c1.8,1.2,1.2,3.3,3,3.2c0.5-0.1,0.6,0,0.3,0.4c-1.1,1.2-1,2,0,2.3
	c1.1,0.6,1.8,1.9,3.3,1c0.7-0.3,1.2-0.3,1.3,0.2c1.2,1.2,3.4,1.1,4.5,2.8l-6.2,5.4c2,0,5.2-2.7,6.3-5.2c7.3,1.3,14,5.3,20.9,8.2
	c0.8,0.4,1.4,0.3,1.8,0c2.5-0.2,5.4,1.7,7.6,0.6c1-0.1,0.9,1.6,2.2,1.3c5.7,1.4,7.4,2.7,13.8-0.6c5.9-2.6,6.5-4.5,12.8-9.6
	c2.2-1,2.2,2.4,1.4,3.6c-2.2,1.3-2.1,1.7,0.2,1c3.5,1.8,1.2-3.5,3.5-1.8c10.5-4.3,21.9-31.2,16.8-40.4c0-0.9-1-1.1-1.1-1.9
	c0-0.3-0.2-0.6-0.4-0.7c-2.1-0.9,0.2-1.5-0.1-2.6c-0.4-0.7-1.7-0.6-1.8-1.4c0.1-1.9-0.4-4.9,0.7-6.9c2.3-5.2,3.8-9.7,1.7-14.6
	c1.1-0.6,1.1-1-0.1-0.9c-2.7,0.7-4.8,3.5-7.4,4.1c-0.4-0.2-0.6-0.5-0.6-1c-0.3-1.1-1.5,0.6-1.3,1.4c-1.6-1.1-3-2.4-4-4
	c0.9-1.1,0.8-1.6-0.5-1.7c-0.5-0.5-2.6-1.4-2.6-2.2c-1.8-4.8-5.6-7.9-9.1-11.3c-0.1-0.9-1.4-1.2-1.3-2.1c0.3-1.1-0.2-1.7-1.4-1.7
	c-0.2-1.7-1.1-2.9-2.5-3.8c0.5-3.8,4.2-8.2,5.6-10.1c-2.8,1.5-4.8,3.7-5.8,6.8c0.4-2.6-3.7-3.7-4.4-4.8c-1.2-1.6-2.6-0.6-4-1
	c-0.4-0.7-3.6-2.6-1.9-3.4c1.8-4.2-1.5-2.7-3.4-2.2c-4.9,0.8-8.9,3.3-11.8,7.4c-1.7,2.4-3.4,2.6-5,0.7c-8.9-8.8-13.4,9.6-22,10.3
	C47.2,33.6,47,34.2,47.7,37z M100.7,21.8c0.7-0.2,2.9-2.9,1.1-1.5C99.3,22.1,99,22.6,100.7,21.8z M52.9,23.4
	c1.3,0.4,0.6-1.5-0.2-1.3C51.6,22.1,52.2,23.4,52.9,23.4z M111.5,36.8c-2-2.6-7.8-7.4-7.2-5.5c2.8,1.3,5.5,3.3,6.8,6.3
	C111.3,39,112.1,37.2,111.5,36.8z M114.2,32.5c0.5-1.7-2.5-2.5-2.9-0.8C110.8,33.4,113.8,34.2,114.2,32.5z M40.2,37.9
	c0-0.5-2.5-2.6-1.9-1.1c1,0.5,2.6,3.4,3.4,3C41.7,39.5,40.4,38.5,40.2,37.9z M114.8,41.7c-0.5-0.8-2.8-1.9-2.3-1.1
	c2.8,1.8,4.8,4.3,5.9,7.4C120.3,49,116.1,42.7,114.8,41.7z M122.4,43.5c1.1-0.1,1.5-1.5,0.5-1C121.1,43.6,120.9,43.9,122.4,43.5z
	 M40.4,44.1c-4.9-2.3-8.6,10.6-6.5,6.7C36.2,43,42.9,45.4,40.4,44.1z M127.4,47.8c0.7-1.4-3.1-0.6-0.8,0.1
	C127,48,127.3,48,127.4,47.8z M122.7,50.3c0.4,0.1,1.1-0.8,0.5-1C122.8,49.1,121.7,50.4,122.7,50.3z M0.6,58.1c0-3.5,0-5.9-0.1-7.3
	c-0.4,5.5-0.3,14.1-0.1,20.6C0.6,70.2,0.5,64.9,0.6,58.1z M129,51.7c1.7-1.1,1.7-1.4,0-0.6C128.4,51.2,128.2,52.2,129,51.7z
	 M0.6,110.5c0-0.1-0.1-0.2-0.2-0.2c-0.1,0-0.2,0.1-0.2,0.2l0,0c0.2,0.2-0.3,21.5,0.2,21.5c0.1,0,0.2-0.1,0.2-0.2V110.5z M59,127.7
	c0.6,0.5,2.1-0.3,1-0.5C58.1,127.1,57.8,127.2,59,127.7z M106.8,128.1c-3.9,4-3.7,4,0.5,0C107.9,126.9,107.4,127.2,106.8,128.1z
	 M63.7,129.2c0.1,1.8,1.2-0.2,0.5-0.7C63.8,128.3,63.6,128.8,63.7,129.2z M68.5,131.2c6.5-3.8-2.1-0.5-2.1,2.2
	C66.7,134.3,67.9,131.6,68.5,131.2z M98.1,133.7c2.7-1.1-2.3-0.8-1.5,0C97.1,134,97.5,134,98.1,133.7z"/>
<path class="st19" d="M0.6,13.3C0,15.4,0.8,2.5,0.7,1c0-1.1,0.1-0.8,0.1,1C1,5.8,0.6,9.5,0.6,13.3z"/>
<path class="st20" d="M80.7,16.2c-5.4,5-14.5,4.1-20.6,6.9c-4.8,1.2-8.2,11.1-13.5,7.8c-1.3-2.4,4.6,0.5,7-3.6
	c7.4-9.7,22.9-5.9,30.2-15.3C87.3,10.1,81.4,15.7,80.7,16.2z"/>
<path class="st20" d="M90.5,19c-9.9-4.9-13.6,12.6-20.5,8.1c-7.5-9.9-12.8,7.1-20.8,9.2c-1.7,2,2.2,10.4,3.8,4.7
	c0.2-2,1.1-3.4,2.6-4.1c1.4-0.7,1.2-0.2-0.8,1.6c-1.1,1.9-1.4,4.9-3.5,5.3c-2.8,1-5.4-12.4-3-8.5c8.6-0.7,13.1-19.1,22-10.3
	c1.6,1.9,3.3,1.7,5-0.7c3-4.1,6.9-6.6,11.8-7.4C89,16.4,92.4,14.8,90.5,19z"/>
<path class="st19" d="M90.5,19c-1.7,0.7,1.5,2.7,1.9,3.4c3.5-0.3,3.7,1.2,7,3.2c4.9,2.8-4.9,9.5-1.5,8.6c1.4-0.5,2.4-1.4,3.1-2.7
	c1.4,0.8,2.3,2.1,2.5,3.8c0.6,4.5,6.7,5.6,8.4,9.9c0.6,0.8,3.5,3.3,3.4,5.2c0,0.8,2.1,1.8,2.6,2.2c-1.3,1.1-1.1,1.6,0.5,1.7
	c1.1,1.6,2.4,3,4,4c-1.2,3.8-6.5,5.3-9.6,7.5c3,0,8-3.1,10.4-6.2c3.4-0.7,5.5-3.7,8.6-4.9c2.1,4.9,0.6,9.4-1.7,14.6
	c-1.1,2-0.6,5-0.7,6.9c0.1,0.8,1.3,0.7,1.8,1.4c0.2,0.2,0.1,0.5-0.1,0.6c-1,0.8-0.9,1.4,0.2,1.9c0.6,0.3,0.3,1.3,1,1.6
	c-2.3,3.6-0.9,20.9-9.4,20.4c-0.2,0.1-8.1-3.6-7.3-1.5c4.9,1.5,8.8,2.7,3.5,7.3c-0.4,0.4-0.3,0.6,0.1,0.6c1-0.9,1.3-2.4,2.9-3.5
	c8.3-2.8,10-14.9,10.7-22.2c5.2,9.1-6.3,36.2-16.8,40.4c-2.3-1.7,0,3.6-3.5,1.8c0.6-0.7,0.5-1-0.2-1l0.5-1.7
	c2.1,1.8-0.3-2.9,0.3-3.3c0,0,4.1-5.4,4.1-5.4c0.4-0.6,0-1.6-0.5-0.3c-1.2,2-3.4,4.3-6.9,7c-5.6,6.8-12.9,9.7-21.5,11.5
	c-1.4-1.8-4.4-0.4-5.4-2.2c-0.1-0.3-0.4-0.5-0.8-0.4c-2.2,1.1-5.1-0.7-7.6-0.6c-3.9,0.6-7.6-3.6-11.7-4.4c-4-0.7-6.8-4-11-3.8
	c-0.8-2-3.3-1.8-4.5-3.1c-0.1-0.5-0.6-0.5-1.3-0.2c-1.5,0.9-2.1-0.4-3.3-1c-1.1-0.3-1.1-1.1-0.1-2.3c0.3-0.4,0.3-0.5-0.2-0.4
	c-1.8,0.1-1.2-2-3-3.1c-2.2-1.8,4-3.2,0.1-4.1c-5-2.4-3.7-13.5-10.3-12c-0.6,0.7-3.6,0.9-3.7-0.5c4.7-4,10-6.5,16.1-7.6
	c1.9-0.3,2.2-0.6,0.8-0.9c-9.5-0.2-15.4,9.4-11.8-0.3c1.8,0.2,1.8-0.3,0.1-1.6c-1.9-2.8-0.4-7.3-3-9.7l1.9-1.2
	c-0.3-3.1,0.4-7.1-0.9-10.2c-0.5-1,2.1-0.5,2.4-0.6c-1.1,7,1.6,10.7,7,14.7c1.8,1.2-0.7-2.3-2.1-2.5c-5.9-4.3-4.3-13.6-1.7-18.9
	c1.3-4.5,8.1-7.2,10.8-10.5c1.8-2.2-1.2-6.7,2.4-7.5c0.6,7.1,4.5,9.8,7.1,1.4c1.9-1.8,2.2-2.3,0.8-1.6C54.1,37.6,53.2,39,53,41
	c-1.8,5.3-4.5-1.5-4.2-4c2.7-2.6,6.9-4.3,9.3-7.6c5-6.4,7.6-7.4,12.7-1.7C77.8,29.5,80.9,14.6,90.5,19z M85.7,27.2
	C85.6,28.9,84,23.2,84,27c0.1,5.5-4.8,7-8.3,10c-0.9,2.8,10.1-6.1,10.2-8c0.9-1.6,1.3-4.9,1.6-6.7C86,22.9,85.9,25.8,85.7,27.2z
	 M90.7,27.4c-1.2-0.8-3.2,1.1-1.9,1.2c0.2-0.2,3-0.8,2.5-1.4C90.9,26.8,91,27.5,90.7,27.4z M58.4,41.8c-3.1,2.6-2.8,2.7,0.9,0.2
	c0.4-0.3,0.7-0.8,0.7-1.3c0-3.5,1.5-5.4,4.8-5.6c3.9,0,4.4-5.9,1.4-7.5c-1.3-0.6-1,0.4,0.1,1.3c2,2.5,0,5.5-2.6,5.3
	C59.5,34.9,59.6,38.5,58.4,41.8z M80.4,28.9c3.4,0.8-0.9-2.1-1.6,0.7C78.8,30.8,79.5,28.2,80.4,28.9z M54.9,35.3
	c0.5-0.7,12.3-2.7,10.1-4.2C63.1,32.5,55.2,32.4,54.9,35.3z M86.6,31.4c0.5-2.1-3.5,3.9-4.7,4.1C82.9,35.6,85.9,33.1,86.6,31.4z
	 M95.4,32.4c0.4,0.1,0.5,0,0.2-0.3c-0.3-0.8-3.6-1.2-2.8-0.4C92.7,31.6,95.4,32.4,95.4,32.4z M73,36.2C75.6,34.4,75.6,34.4,73,36.2
	C72.4,36.6,72.5,36.6,73,36.2z M96.3,38.9c-1.7-0.9-9.3-4-7.8-2.1c3,0.8,6,1.6,8.5,3.4C98,40.6,96.9,39.1,96.3,38.9z M56.9,50.8
	c-1.9,2.7-7.1,5.8-6.4,9.4c2.2-3.4,5-7.7,9.4-8.7c0.8-2.2,2.3-3.8,4.6-4.7c0.9-0.3,1-0.5,0.3-0.5c-1.4,0.3-6.9,5.2-5.4,1.1
	c2.6-3.4,5.9-5.8,9.9-7.1c1.1-0.4,1-0.5-0.5-0.3c-7.7,1-12.6,8.3-17.5,13.6c-1.9,2.9-5,6.8-3.3,10.4c0.8,1.1,1,1,0.6-0.3
	C46.4,61.1,55.4,47.9,56.9,50.8z M81.5,41.1c0.3-1.1-1-1.4-1.2-0.4c-0.1,0.7-0.7,5.2,0.9,3.6C81.3,43.2,81.3,42.1,81.5,41.1z
	 M113.3,51.9c-3.4-4.9-9.8-11.3-13.6-11.2c8.5,4.3,14.1,12.3,17.8,20.8C118.6,59.7,115.2,55.1,113.3,51.9z M89.1,42.4
	c0.8-0.4,0.4-0.4-1.3,0c-1.2,0.3-1,0.4,0.7,0.2C88.7,42.6,88.9,42.5,89.1,42.4z M102.4,46.1c-0.5-0.8-4.6-3.8-4.3-2.3
	c2.8,1.9,9.9,6.4,4.3,10.2c-0.1,0.5,0.1,0.5,0.4,0.2C107.6,49.8,105.6,50.3,102.4,46.1z M64.6,88.8c12,1.8,7.6-15,8-21.1
	c-1.8-6.5-7.2-3.1-9.3-5.3c0.2-0.5-0.7-3.9,0.6-3.7c13.4-0.1,10.2,1.7,10.6-11.4c-0.1-1.3,0.5-1.9,1.8-1.7c2.1,2.9,0,8.2,0.9,11.6
	c1.8,1.6,1-10,1.2-11.5c-0.2-2.2-5.2-2.5-5.5-0.7c-1,13.6,4,12.2-9.3,12.1c-3.4-0.4-2.5,4.4-2.4,6.2c0.7,3.2,7,0.3,8,4.7
	c0.1,2.2,2.8,19.6-3.2,17.9c-2.4-0.4-3.7,0.1-3.7,1.6c-0.5,9.4,0.3,6.9,8.9,7.2c3.8,0.3,0.3,6.8,2.5,10.9c1.6,0.8,4.2,0.6,4.7-1.2
	c-0.4-2.6,1.2-10.8-0.8-11.7c-0.6,2.6-0.2,5.6,0,9.4c0.1,1.3-0.5,2-1.8,2.2c-2.5,0.5-0.6-8.7-1-10.5c0.5-1.1-9.7-0.5-10-0.8
	c-1.1,0.2-0.5-3.3-0.7-3.8C64,89,64.3,88.8,64.6,88.8z M81,71.2c-0.2-0.6-0.6-1-1.2-1.2c-0.6-2.5,0.2-6.1-1-8
	c-0.9-0.2-0.3,9.9-0.5,10.2c0,0.3,0.2,0.5,0.5,0.5c0,0,18.5,0,18.5,0c13.3,4.4,5.1,24.6-8.5,20.4c-2.6-0.4-1,7.7-1.5,9.8
	c0.4,1.7-2.3,2.2-2.9,0.7c0-3,0-6-0.1-9c-1.2-6.6-2.2,10.5-0.9,10.9c1.3-0.2,5.2,1.8,5.5-0.6c0,0,0.2-8.9,0.3-9c1-2,8,0.7,10.9-2.6
	c6.9-4.6,9.2-18.3-0.3-21.5c-1.1-1,3-4.5,2.2-6.9c-0.5-6.5-8-8.3-13.2-8.9c-0.1-0.3,0.2-11.3-0.4-11.3c-1.2-1-4.6-1.5-5.6-0.4
	c-1.1,4.1,1.2,8.7-0.9,12.1c-0.4,0.6-0.4,0.9,0,0.8c0.3-0.1,0.8-0.8,1.5-2.3c0.5-0.5,0.4-7.6,0.5-8.4c0-1.2,2.5-1.1,2.5,0
	c-0.1,3.5,0.1,6.2-0.1,9.7C85.8,61.4,97.1,55,99,64.4c2.6,6.7-11,8.4-6.6,5.7c1.5-0.8,2.2-2.1,2.1-3.9c-0.9,1-2.8,5-5.6,5
	c-1.4,0-1.6-0.4-0.5-1.4c2-1.8,1.9-3.3-0.5-4.6c-0.2-0.8-10.6-0.7-7.4,0.9C91.2,63.8,91.6,72.4,81,71.2z M49.9,50.1
	c1.5,2.3-0.3-2.8-0.8-3.5c-0.4-1-0.6-1.1-0.6-0.4C48.5,46.6,49.9,48.9,49.9,50.1z M64.5,49c1-1,4.4-0.8,4.5-1.7
	C68.3,46.5,62.4,49.6,64.5,49z M81.2,50.8c-0.7-0.3-0.3-3.3-0.8-2.3C79.3,51.2,83,52.2,81.2,50.8z M36.7,54.2
	c-3.8,5.5-5.2,17.7,3.6,19.4c0.7,0.3,1.9-0.8,2.5-1c-11.9,1.4-9.9-19.4,0.1-22.2C41.2,49.4,37.6,52.7,36.7,54.2z M99.9,50.9
	c-0.7-0.7-1.1-0.8-1.1-0.4C98.8,51.5,101.8,52.4,99.9,50.9z M107.8,52c-0.2-0.6-0.8-0.2-0.4,0.2C109.4,54.4,108.9,53.8,107.8,52z
	 M38.8,54.8c-0.5,0.3-2.3,3.6-1.1,2.6c0.9-2.8,6-5.8,6.3-1.6c-0.7,0.9-0.6,1,0.2,0.4C46.8,53.5,39.9,52.2,38.8,54.8z M67.6,55.8
	c0.4-0.1,0.5-0.9,1.1-0.9c0.5-0.1,0.7-0.3,0.7-0.6C68.9,53,66.5,55.3,67.6,55.8z M104.1,54.8c-0.3,0.8-2.4,1.3-1.7,1.7
	C102.9,57.3,105.3,53.5,104.1,54.8z M98.2,55.8c-0.8-0.6-2.6-1.7-3.5-1.5c1.2,1.3,3.6,1.8,4.7,3.5C100.8,58.5,99.4,56.5,98.2,55.8z
	 M110.2,57.3c0.7,0.6,2.2,5.6,2.6,4.2C113,59.9,108.9,54.6,110.2,57.3z M108.3,65.2c0.9,3.9,1.3,7.9,0.6,11.8
	c-0.5,1.5,0.4,0.9,0.6,0.1c1-6.6,0-14.2-4.4-19.5C103.6,56.8,108.6,63.7,108.3,65.2z M55.3,59.2c-5.8,9.9-5,27.8,0.5,33.5
	c-5.1-10.9-5.2-21.9-0.2-32.9C56.5,57.9,55.8,58.3,55.3,59.2z M43.2,61.9c-0.9,1-3.3,3.9-3,4.4C41.1,65.6,45.6,59.7,43.2,61.9z
	 M59.1,62.1c-1.3,0.9-0.8,1.7,0.1,0.8C60.2,61.5,60.1,61.2,59.1,62.1z M125.2,67.3c-1.5,0.3-2.1,2.5-0.8,3.1c0.4,0,0.6-0.5,0.4-1.4
	c0.8-1.9,3.1-3,3.7-5.2c0.7-1.7,0.6-2-0.4-0.8C127.3,64.5,126.9,66.5,125.2,67.3z M50.1,64.6c-0.8,2.2-2.7,6-1.7,7.9
	c0.7-2.7,1.3-5.5,2.2-8.2C50.5,62.1,50.4,63.2,50.1,64.6z M47.2,65.2c-0.7-1.7-1.1-0.5-0.7,0.3c1.1,2.5,1.4,2.6,0.9,0.2
	C47.3,65.5,47.3,65.3,47.2,65.2z M119.3,69.1c0,1.1,1.2,6.5,1.4,2.4c0-1.2-0.4-3.2-1.1-5.8c-0.1-0.3-0.2-0.3-0.3,0
	C119.1,66.8,119.1,68,119.3,69.1z M117.2,68.3c0.9,3.8,0.3,9.4,0.3,12.2C120.4,78.1,117.3,61.5,117.2,68.3z M104.3,68.3
	c-0.5,0.5,0.2,3.4,0.4,2.2C104.7,70.3,104.8,66.7,104.3,68.3z M45.9,72.3c-1.1,3.9-1.2,7.2-0.4,9.7c1,1.7,0.5,7.3,1.2,4.8
	c-0.2-7.1-2.2-8,0.2-17.1c0.3-1.2,0-1.7-0.6-1.6C45.2,69,46.6,71,45.9,72.3z M113.6,74.6c0.1-7-0.1-6.6-0.5,1.3
	c0,0.4,0.1,0.5,0.4,0.3C114,76,113.5,74.7,113.6,74.6z M125.4,73.7c-3.3,7.9,0.7,4.2,0.5,0.1C126,73.5,125.4,73.3,125.4,73.7z
	 M119.9,75.9c-0.1,1.8-1.1,3.8-0.6,5.5C121.2,81.8,120.7,70.6,119.9,75.9z M79.8,76.5c5.9-1.2,5.7-1.4-0.6-0.5
	C77.7,76.8,78.3,77.4,79.8,76.5z M48,76.3c0.3-2.7-1.6,4-0.2,4.8C48.2,80.4,47.5,77,48,76.3z M34.2,78.9c2.2-1.7-2.6-2.2-0.7-0.1
	C33.6,79,34,79.1,34.2,78.9z M91.5,78.6c-3.7-1.2-9.7-1.7-13.2,0.2c0,0-0.3,8.1-0.3,8.1c0.9,3.1,16.4,1.2,18-1c4.9-2.7-3-12-2.2-7.2
	c1.8,7.8-6.3,7.6-11.9,7.3c-1,0-1.9-0.7-2-1.5c0.1-1.3-1.8-5.5,0.7-5.7c3.9,0.1,7.8-0.8,10.8,0.9c3.3,4.5-4.3,4.1-6.8,4.6
	C87.6,86.6,96.5,83.2,91.5,78.6z M37,83c-1.4,1.3-2.3,1-2.8-0.9c-0.5-2-0.8-2.3-1-0.7C33.2,83.7,36.7,86.1,37,83l4.5-3.3
	C42.1,78.6,37.4,81.9,37,83z M113,81.5c-1.1-0.8,0.1-3.1-1.4-2.2C110.2,80.5,113.8,83.1,113,81.5z M126.5,80.6
	c-1.8,1.4-0.1,1.2,0.5,0.4C128.2,78.6,127.6,79.3,126.5,80.6z M125.8,84.8c-1.2-0.3-2.8-3.2-3.3-2.9c-0.8,1.4,4.3,5,6.2,3.8
	C131.8,82.2,128.1,86,125.8,84.8z M108.6,84.5c0.1-1.4,0-1.4-0.3-0.1C108.3,85.2,108.5,85.8,108.6,84.5z M57.2,85.8
	c-0.2-0.5,1.1,5.4,1.5,3.2C58.6,88.2,56.7,82.1,57.2,85.8z M97.6,110.5c8.2-4.6,17.5-12.5,20.2-22.1c-5,7.9-10.1,15.8-18.4,19.8
	c-3.1,0.5-6.1,8.8-7.4,4.4c-0.3-0.6,1.3-2.8,0.5-2.5c-2.4,1.4-1.9,4.2,0.5,4.9C95.2,114.8,95.5,111.2,97.6,110.5z M124.2,92.1
	c-1.7,2.1-3.3-3.6-6.1,0.3c-1.3,1.5-1.1,1.6,0.5,0.2c1-0.9,2.5-0.7,4.3,0.6c3.1,1,2.4-5-0.4-3.9C122.9,90.2,125,90.8,124.2,92.1z
	 M104.8,91.2c-0.7,0.5-3.3,3.1-2.2,2.9C103.6,93.7,106.4,90.4,104.8,91.2z M109.7,90.4c-0.1,0.6-0.7,1.6-1.8,3.2
	c-0.6,0.9-0.6,1,0.1,0.4c0-0.2,2.8-2.6,2.2-4C109.9,89.8,109.7,89.9,109.7,90.4z M112.1,93.8c-0.9,0.9-1.2,1.3-0.8,1.3
	c0.3,0,0.5-0.2,0.8-0.5C112.9,93.3,112.9,93,112.1,93.8z M55.8,102.2c1.5,1.4,1.6,1.3,0.2-0.2c-2.2-2-3.8-5.5-6-8.4
	C47.7,92.4,54.5,101.5,55.8,102.2z M39.2,96.4c2.2,0.7-0.9-1.9-1.2-2.5C36.9,93.5,37.9,96.4,39.2,96.4z M107.7,98.3
	c-2.1,3.6-5.9,5.9-9,8.1c3.9-1.2,8.9-5.2,9.9-9.2C108.2,96.8,107.9,98.1,107.7,98.3z M96.1,98.1c-0.7-0.4-1.7,0.1-1,0.6
	C96.8,98.9,97.6,98.7,96.1,98.1z M45.4,106.6c0.4,0.4,1.6,0.6,0.7-0.1c-2.9-2.2-4.8-5-6.4-7.8C38.7,100.1,43.5,105,45.4,106.6z
	 M125.4,99.4c1.1-1.4-1.3-0.2-1.5,0.3C122.6,101.6,125.2,100.3,125.4,99.4z M80.7,105l0.1,9.5c1.5,1.6,1.2-9.4,0.2-9.8
	C81.3,99.2,79.7,100.7,80.7,105z M94.3,103.6c1.5-1.2,1.4-1.3-0.4-0.4c-0.2,0.1-0.4,0.3-0.3,0.5c0,0,0,0,0,0
	C93.7,103.9,94,103.8,94.3,103.6z M114.7,108.6c3.2,6.9,10.3-1,7.8-0.1c-6.4,6.4-7-6.6-14.1-3c-0.3,0.3-0.1,0.4,0.6,0.3
	C111.6,105.5,113.3,106,114.7,108.6z M50,106.6c1.1,1.3,4.2,3.4,4.7,2.8C54.5,109.4,47.7,104.1,50,106.6z M74.3,112.2
	c-3-0.4-7-3.4-10.9-4.9C63,108.7,77.4,114.3,74.3,112.2z M56.7,112.8c3.3,2,5.5,0.9,8.8,1.9c1.5-0.2,1.3-0.4-0.5-0.7
	c-4.3-0.6-8.4-1.9-12.1-4.1c-8.5-6.2-11.8,4.8-3.2,6.8c11.8,3.3,21.2,13.4,33.2,7.2c1.1-1,0.9-1.1-0.8-0.3
	c-11.3,5.1-24.7-6-35.2-9.4c-2.2-1.9-2.4-3.5-0.5-4.8C49.8,107.4,53.5,112.2,56.7,112.8z M107.2,110.9c-0.4,2.8-1.6,5-3.6,6.5
	c-0.2,0.2,0,0.4,0.3,0.3c4.9-2,2.6-6.7,4.9-8.1c1-0.1,1.6-0.3,1.6-0.6C109.4,107.7,107.1,109.5,107.2,110.9z M125.2,109.7
	c-0.3,2.1,1.3,0,0.6-0.7C125.5,108.9,125.3,109.1,125.2,109.7z M119.9,114.6c-0.1,0.2-0.2,0.4-0.2,0.7c-0.2,1.3,1.8-1.8,2-1.8
	C123.3,111.2,119.8,113.4,119.9,114.6z M97.8,115.6c0.9,0.1,4.2-3.5,2.4-2.1C99.7,114.3,95.5,116.5,97.8,115.6z M69.6,120.4
	c-4.9-0.3-9.9-2.4-14.9-5.2c-1.9-0.3-1.9-0.1-0.2,0.7c11.9,7.3,23.8,7.4,35.6-0.2c0.9-0.5,0.1-0.7-0.4-0.4
	C83.2,119.4,76.5,121.1,69.6,120.4z M90.6,119.6c-0.4-0.6,7.7-3.6,5.2-3.3c-3.4,1.6-6.5,3.6-9.5,5.8
	C86.5,122.9,89.9,120.7,90.6,119.6z M104.4,119.7c0.8-0.4,5.1-3.3,3.6-3.3C107.2,116.9,101.1,121.5,104.4,119.7z M97.3,119.4
	c2.8-1.7,2.5-1.7-0.8,0.1C95.8,120.5,97.1,119.8,97.3,119.4z M98.7,122.6c0.3,0.3,2.4,0.5,1.6-0.2
	C100.2,122.1,97.9,121.9,98.7,122.6z M88.3,125.7c2-0.7,5-2.2,7-1.2c0.5,0.4,1.4,0.1,0.5-0.4c-2-1.1-7.1,0.1-8.4,2
	C87.2,127.7,87.7,126.1,88.3,125.7z"/>
<path class="st21" d="M100.7,21.8c-1.7,0.9-1.4,0.4,1.1-1.5C103.6,18.9,101.4,21.6,100.7,21.8z"/>
<path class="st20" d="M101,31.5c0,1.1-4.3,4.2-3.8,2.2c4.1-3.4,3.9-10.1,9.4-12.3C105.3,23.3,101.5,27.7,101,31.5z"/>
<path class="st20" d="M52.2,22.9c-0.5-0.8,1-1.1,1.3-0.4c0.4,0.7,0.2,1-0.5,0.9C52.6,23.4,52.3,23.2,52.2,22.9z"/>
<path class="st22" d="M85.7,27.2c2.3-13.6,4.6,4.9-9.6,10.1c-3,0.3,9.6-5.6,7.9-10.4C84,23.2,85.6,28.9,85.7,27.2z"/>
<path class="st21" d="M91,27.2c0.1-0.5,0.6,0.2,0.2,0.3c-0.3-0.1-3.2,1.8-2.7,0.6C88.7,26.8,89.9,27.4,91,27.2z"/>
<path class="st22" d="M58.4,41.8c1.3-3.2,1.1-6.9,5.4-7.6c2.6,0.1,4.6-2.8,2.6-5.3c-1-0.8-1.5-1.8-0.3-1.4c3.1,1.5,2.7,7.5-1.3,7.6
	c-3.2,0.3-4.8,2.1-4.8,5.6c0,0.5-0.2,1-0.7,1.3C55.6,44.4,55.3,44.4,58.4,41.8z"/>
<path class="st18" d="M80.4,28.9c-0.9-0.7-1.5,1.9-1.6,0.7C79.5,26.7,83.8,29.7,80.4,28.9z"/>
<path class="st23" d="M54.7,35c2.4-2.9,7.8-2.4,10.3-4c0.4-0.1,0.5,0,0.4,0.3c-0.1,0.6-0.5,1-1.2,1.1C60.7,33,56.5,35.3,54.7,35z"/>
<path class="st24" d="M86.6,31.4c-0.8,1.7-3.7,4.3-4.7,4.1C83.1,35.3,87.1,29.3,86.6,31.4z"/>
<path class="st21" d="M111.5,36.8c0.6,0.4-0.2,2.2-0.5,0.8c-1.3-2.9-3.9-4.9-6.7-6.3C103.7,29.4,109.5,34.1,111.5,36.8z"/>
<path class="st20" d="M114.2,32.5c-0.5,1.7-3.4,0.9-2.9-0.8C111.8,30,114.7,30.8,114.2,32.5z"/>
<path class="st24" d="M95.4,32.4l-2.7-0.7c-0.8-0.7,2.6-0.4,2.8,0.4C95.9,32.4,95.8,32.5,95.4,32.4z"/>
<path class="st20" d="M45.7,39.2c2.6,7.9-9.3,9.4-11.1,15.8C32,60.4,30.4,69.7,36.3,74c0,0.2-0.1,0.2-0.3,0.3
	c-8.8-5.8-4.2-20.1,2.8-25.5c3.5-1.5,8-6.2,4.8-11C35.9,27.2,43.8,33.4,45.7,39.2z"/>
<path class="st18" d="M73,36.2C72.5,36.6,72.4,36.6,73,36.2C75.6,34.4,75.6,34.4,73,36.2z"/>
<path class="st24" d="M103.5,35.2c1.3,0,1.7,0.6,1.4,1.7c-0.1,0.9,1.1,1.2,1.3,2.1C104.5,38.4,103.5,37.1,103.5,35.2z"/>
<path class="st25" d="M40.2,37.9c0.3,0.6,1.6,1.6,1.5,1.8c-0.8,0.4-2.4-2.4-3.4-3C37.6,35.3,40.1,37.4,40.2,37.9z"/>
<path class="st25" d="M96.3,38.9c0.6,0.1,1.7,1.7,0.7,1.2c-2.6-1.8-5.6-2.5-8.5-3.3C87,34.9,94.6,38,96.3,38.9z"/>
<path class="st23" d="M56.9,50.8c-1.5-2.9-10.5,10.2-8.3,12.8c0.4,1.3,0.2,1.4-0.6,0.3c-1.8-3.6,1.4-7.5,3.3-10.4
	c5-5.3,9.8-12.6,17.5-13.6c1.4-0.2,1.6-0.1,0.5,0.3c-4.1,1.4-7.4,3.7-9.9,7.1c-1.5,4.1,3.9-0.8,5.4-1.1c1.7-0.1-4.6,2.1-4.8,5.2
	c-4.4,1-7.2,5.4-9.4,8.7C49.8,56.6,55,53.5,56.9,50.8z"/>
<path class="st22" d="M81.5,41.1c-0.4,1,0.3,3.2-0.8,3.6c-1.1-0.8-0.3-2.8-0.3-4C80.5,39.7,81.8,39.9,81.5,41.1z"/>
<path class="st21" d="M114.8,41.7c1.3,1,5.5,7.3,3.6,6.3c-1.1-3.2-3.1-5.6-5.9-7.4C112,39.8,114.3,40.9,114.8,41.7z"/>
<path class="st22" d="M113.3,51.9c1.9,3.2,5.2,7.8,4.2,9.6c-3.7-8.5-9.3-16.5-17.8-20.8C103.5,40.7,109.9,47.1,113.3,51.9z"/>
<path class="st21" d="M88.5,42.6c-1.7,0.2-1.9,0.2-0.7-0.2c1.7-0.4,2.2-0.4,1.3,0C88.9,42.5,88.7,42.6,88.5,42.6z"/>
<path class="st21" d="M122.4,43.5c-1.4,0.4-1.3,0.1,0.5-1C123.9,42,123.4,43.4,122.4,43.5z"/>
<path class="st25" d="M102.4,46.1c3.1,4.3,5.2,3.7,0.4,8.1c-0.3,0.3-0.5,0.3-0.4-0.2c5.8-3.8-1.9-8.5-4.5-10.5
	C99.3,42.9,101.4,45.1,102.4,46.1z"/>
<path class="st20" d="M64,89.3c0.2,0.4-0.4,4,0.7,3.8c0,0,9.5,0.2,9.5,0.2c0.3,0,0.5,0.2,0.5,0.5c-0.3,3.2-0.1,5.6-0.3,9
	c-0.1,1.1,0.3,1.6,1.3,1.5c3.7-0.8,0.5-8.9,1.6-11c1.8-3,0.8,9.8,1,11.1c-0.5,1.9-3.1,2-4.7,1.2c-2.2-4.2,1.3-10.7-2.5-11
	c-8.6-0.2-9.4,2.3-8.9-7.2c0-1.5,1.2-2,3.7-1.6c6,1.8,3.3-15.7,3.2-17.9c-1-4.4-7.2-1.4-8-4.7c-0.1-1.8-1-6.7,2.4-6.2
	c13.3,0.1,8.4,1.5,9.4-12.1c0.2-1.8,5.3-1.4,5.5,0.7c-0.2,1.3,0.6,13.1-1.2,11.5c-0.8-3.3,1.2-8.7-0.9-11.6
	c-1.3-0.2-1.8,0.4-1.8,1.7C74,60.5,77.1,58.7,63.8,58.8c-1.3-0.2-0.4,3.2-0.6,3.7c0,0.5,0.5,0.8,1,0.8c9.2,0,8.5,3.2,8.6,12.5
	C72.9,85.7,73.5,88.1,64,89.3z"/>
<path class="st20" d="M79.8,70c-1,1.8-0.6,2.2,1.2,1.2c10.6,1.1,10.1-7.4-0.5-5c-3.2-1.6,7.3-1.7,7.4-0.9c2.4,1.2,2.5,2.8,0.5,4.6
	c-1.1,1-0.9,1.4,0.5,1.4c2.8,0,4.7-4.1,5.6-5c0.1,1.8-0.6,3.2-2.1,3.9c-4.4,2.7,9.1,0.9,6.6-5.8c-2-9.5-13.2-3-12.9-8.2
	c0.2-3.5,0.1-6.3,0.1-9.7c0-1.1-2.4-1.1-2.5,0c-0.1,0.9-0.1,7.9-0.5,8.4c-0.7,1.4-1.2,2.2-1.5,2.3c-0.3,0.1-0.3-0.2,0-0.8
	c2.1-3.4-0.1-8.1,0.9-12.1c1-1.2,4.4-0.5,5.6,0.4c0.6-0.1,0.3,10.9,0.4,11.3c5.3,0.6,12.8,2.5,13.2,8.9c0.8,2.4-3.2,5.8-2.2,6.9
	c9.5,3.3,7.2,16.9,0.3,21.5c-3,3.2-9.8,0.5-10.9,2.5c0,0-0.2,8.8-0.2,8.8c0,2.6-4.2,0.7-5.5,0.8c-2.2-9.2,1.6-21.3,1-1.9
	c0.6,1.6,3.3,1,2.9-0.7c0.4-2-1.1-10.3,1.5-9.8c13.6,4.3,21.7-16,8.5-20.4c0,0-18.5,0-18.5,0c-0.3,0-0.5-0.2-0.5-0.5
	c0.2-0.3-0.3-10.4,0.5-10.2C80,63.9,79.2,67.5,79.8,70z"/>
<path class="st24" d="M40.4,44.1c2.6,1.2-4.1-1.1-6.5,6.7C31.8,54.8,35.5,41.8,40.4,44.1z"/>
<path class="st24" d="M49.9,50.1c-0.1-1.1-1.5-3.5-1.4-3.9c0-0.7,0.2-0.6,0.6,0.4C49.6,47.2,51.4,52.3,49.9,50.1z"/>
<path class="st22" d="M126.7,47.9c-1.8-0.5,0.2-1.3,0.8-0.7C127.8,47.8,127.1,48.1,126.7,47.9z"/>
<path class="st18" d="M64.2,49.2c-1-0.4,4.1-2.4,4.8-2C68.7,48.3,65.2,48,64.2,49.2z"/>
<path class="st18" d="M81.5,51c0.4,0.2,0.4,0.3,0,0.4c-1.2-0.1-1.5-1.7-1.2-2.9C81,47.4,80.4,50.9,81.5,51z"/>
<path class="st21" d="M122.4,49.8c0.3-0.6,1.1-0.7,1,0C123.2,50.4,121.8,50.6,122.4,49.8z"/>
<path class="st23" d="M36.7,54.2c0.9-1.5,4.6-4.7,6.2-3.8c-10,2.8-12,23.6-0.1,22.2c-0.6,0.2-1.8,1.3-2.5,1
	C31.5,71.9,32.9,59.7,36.7,54.2z"/>
<path class="st19" d="M0.6,58.1c0,6.8,0,12.2-0.1,13.4c-0.2-6.5-0.4-15.2,0-20.6C0.5,52.2,0.6,54.6,0.6,58.1z"/>
<path class="st18" d="M99.9,50.9c2,1.5-1,0.6-1.1-0.4C98.8,50.1,99.2,50.2,99.9,50.9z"/>
<path class="st18" d="M128.6,51.8c-0.4-0.1,0.1-0.7,0.4-0.8C131.2,50,130.1,51.2,128.6,51.8z"/>
<path class="st24" d="M107.9,52.3c1.3,1.8,1.1,1.7-0.6-0.1C106.9,51.5,107.8,51.7,107.9,52.3z"/>
<path class="st22" d="M118,52.5c1.3,0,1.4,0.6,0.5,1.7C116.9,54.2,116.7,53.6,118,52.5z"/>
<path class="st21" d="M38.8,54.8c1.2-2.6,8-1.3,5.4,1.4c-0.8,0.7-0.9,0.5-0.2-0.4c-0.3-4.3-5.3-1.2-6.3,1.6
	C36.4,58.4,38.3,55.1,38.8,54.8z"/>
<path class="st24" d="M67.3,55.3c0.2-0.7,1.6-2,2-1c0.1,0.7-1.2,0.5-1.3,1.1C67.9,56,67.1,55.9,67.3,55.3z"/>
<path class="st22" d="M132,54.7c-3.2,1.2-5.2,4.1-8.6,4.9c-2.4,3-7.5,6.2-10.4,6.2c3.1-2.2,8.4-3.7,9.6-7.5
	c-0.2-0.8,1.1-2.6,1.3-1.4c0.6,3.3,6-3.1,8-3C133.1,53.8,133.1,54.1,132,54.7z"/>
<path class="st24" d="M104.1,54.8c1.3-1.3-1.2,2.5-1.7,1.7C101.7,56.1,103.8,55.5,104.1,54.8z"/>
<path class="st25" d="M98.2,55.8c1.2,0.7,2.6,2.8,1.2,2c-1.1-1.7-3.5-2.2-4.7-3.4C95.6,54,97.4,55.2,98.2,55.8z"/>
<path class="st25" d="M110.2,57.3c-1.3-2.6,2.9,2.6,2.6,4.2C112.4,62.8,110.9,57.9,110.2,57.3z"/>
<path class="st24" d="M108.8,65.2l-0.5,0c0.3-1.6-4.8-8.5-3.2-7.6C107,59.7,108.1,62.5,108.8,65.2z"/>
<path class="st22" d="M55.6,58.7c-3.6,9.3-5.9,23.1,0.2,34C50.3,86.9,49.4,68.6,55.6,58.7z"/>
<path class="st24" d="M43.2,61.9c2.4-2.3-2.1,3.7-3,4.4C39.9,65.8,42.3,63,43.2,61.9z"/>
<path class="st26" d="M59.1,62.1c1.1-0.9,1.1-0.6,0.1,0.8C58.3,63.8,57.7,63,59.1,62.1z"/>
<path class="st21" d="M126,66.8c1-1.1,1.5-2.5,2.2-3.8c2.5-2.5-1.7,4.9-3,5.1c-0.7,0.5,0.2,2.4-0.7,2.2
	C122.5,69.2,124.6,67.5,126,66.8z"/>
<path class="st22" d="M50.2,64.3c0.2-1.7,0.4-1.7,0.5,0c-0.9,2.7-1.6,5.5-2.2,8.2C47.4,70.5,49.4,66.6,50.2,64.3z"/>
<path class="st22" d="M47.4,65.7c0.5,2.4,0.2,2.3-0.9-0.2C45.9,63.8,47.1,64.2,47.4,65.7z"/>
<path class="st18" d="M108.3,65.2l0.5,0c1.1,4,1.7,8.4,0.5,12.4c-0.5,0.6-0.6,0.4-0.4-0.6C109.5,73.1,109.2,69.1,108.3,65.2z"/>
<path class="st24" d="M119.3,69.1c-0.2-1.1-0.2-2.3,0.1-3.4c0.1-0.3,0.2-0.3,0.3,0c0.7,2.6,1.1,4.5,1.1,5.8
	C120.5,75.6,119.3,70.2,119.3,69.1z"/>
<path class="st24" d="M117.2,67.6c0.6-4.8,2.9,10.9,0.3,12.9C117.7,77.4,118,71.6,117.2,67.6z"/>
<path class="st18" d="M104.7,68.3l0.1,2.1c-0.2,1.2-0.9-1.7-0.4-2.2C104.5,67.8,104.6,67.8,104.7,68.3z"/>
<path class="st22" d="M46.1,70.6c0.1-0.7-0.7-2,0.2-2.4c0.7-0.1,0.9,0.4,0.6,1.6c-2.8,9.2,0.4,10.7-0.5,17.7c-0.5-1.3,0.1-3-0.9-5.5
	C44.3,79.2,45.7,74.6,46.1,70.6z"/>
<path class="st18" d="M113.7,75.5c0.2,0.5-0.7,1.3-0.7,0.4C113.7,66.7,113.3,68.9,113.7,75.5z"/>
<path class="st24" d="M79.8,70c0.6,0.2,1,0.6,1.2,1.2C79.1,72.2,78.7,71.8,79.8,70z"/>
<path class="st20" d="M28,73.8c2.5,2.4,1.1,6.9,3,9.7c3.7,3.2-3,1.4-2.2-2.4c0.1-3.2-0.7-8.6-3.2-6c-0.3,0.4-0.8,0.6-1.3,0.3
	C21.5,72.4,26.3,72.7,28,73.8z"/>
<path class="st24" d="M125.4,73.7c0-0.4,0.5-0.2,0.5,0.1C126.1,77.9,122.1,81.6,125.4,73.7z"/>
<path class="st25" d="M36.3,74c1.2,0.5,3.4,2.4,2.5,2.8c-0.9-0.8-1.7-1.9-2.8-2.5C36.2,74.2,36.2,74.2,36.3,74z"/>
<path class="st22" d="M119.9,75.9c0.9-5.3,1.3,5.9-0.6,5.5C118.8,79.7,119.8,77.7,119.9,75.9z"/>
<path class="st24" d="M79.3,76.7c-1.5,1-1-0.5-0.1-0.7C86.4,75.1,84.7,75.3,79.3,76.7z"/>
<path class="st24" d="M47.8,76.9l0.1,3.8c0,0.5-0.3,0.6-0.4,0C46.5,79,48.7,73.1,47.8,76.9z"/>
<path class="st22" d="M34.2,78.9c-0.2,0.2-0.5,0.1-0.7-0.1C31.6,76.7,36.4,77.2,34.2,78.9z"/>
<path class="st20" d="M91.5,78.6c5.1,4.6-3.8,8-7,5.7c2.5-0.5,10.1-0.1,6.8-4.6c-1.1-1-11.9-2.1-12.1,0.5c0,0.1,0.6,4.2,0.6,4.3
	c0.1,0.9,1,1.5,2,1.5c5.6,0.3,13.7,0.5,11.9-7.3c-0.8-4.7,7.1,4.6,2.2,7.2c-1.6,2.2-17,4.1-18,1c0,0,0.3-8.1,0.3-8.1
	C81.8,76.9,87.8,77.4,91.5,78.6z"/>
<path class="st21" d="M37,83c0.4-1,5.1-4.4,4.5-3.3C41.5,79.7,37,83,37,83z"/>
<path class="st21" d="M113,81.5c0.8,1.6-2.8-1-1.4-2.2C113.1,78.3,111.9,80.6,113,81.5z"/>
<path class="st21" d="M126.8,80.3c1.6-2.4,0.7,0.5-0.4,1.2C125,82,126.1,81,126.8,80.3z"/>
<path class="st24" d="M37,83c-0.3,3.1-3.8,0.7-3.7-1.6c0.1-1.6,0.4-1.3,1,0.7C34.7,84,35.6,84.3,37,83z"/>
<path class="st22" d="M125.8,84.8c2.3,1.2,6-2.6,3,0.9c-1.9,1.2-7.1-2.4-6.3-3.8C123,81.6,124.5,84.5,125.8,84.8z"/>
<path class="st20" d="M132.5,81.7c0.9,5.8-1.3,17.4-7,21.4c-3.9,1.9-4.3,2.9-6.1,5.4c-1.5-0.4,4.3-3.7,2.1-5.3
	c-0.5-1.3-7.7-2.8-5.5-3.2c4.5,0.1,9.2,5,11.7-0.5c2.6-5.4,3.9-10.6,3.8-15.6C131.5,82.8,131.9,82,132.5,81.7z"/>
<path class="st18" d="M108.6,84.5c-0.1,1.2-0.3,0.7-0.3-0.1C108.6,83.1,108.7,83.2,108.6,84.5z"/>
<path class="st18" d="M57.2,85.8c-0.5-3.8,1.4,2.4,1.5,3.2C58.3,91.2,57,85.3,57.2,85.8z"/>
<path class="st23" d="M25.8,93.8c-0.8,0.1-1,0-0.6-0.4c4.7-4.5,10.9-7.7,17.4-8.1c1.4,0.3,1.2,0.6-0.8,0.9
	C35.8,87.3,30.4,89.8,25.8,93.8z"/>
<path class="st23" d="M97.6,110.5c-2.1,0.7-2.4,4.3-4.6,4.5c-2.4-0.7-2.9-3.5-0.5-4.9c0.8-0.2-0.8,1.9-0.5,2.5
	c1.2,4.3,4.4-4,7.4-4.4c8.3-4,13.4-12,18.4-19.8C115.1,98,105.8,105.9,97.6,110.5z"/>
<path class="st24" d="M124.2,92.1c0.8-1.3-1.2-1.9-1.6-2.7c2.8-1.1,3.4,4.9,0.4,3.9c-1.8-1.3-3.3-1.5-4.3-0.6
	c-1.6,1.4-1.8,1.3-0.5-0.2C120.9,88.5,122.5,94.2,124.2,92.1z"/>
<path class="st25" d="M104.8,91.2c1.6-0.8-1.1,2.5-2.2,2.9C101.5,94.3,104.1,91.6,104.8,91.2z"/>
<path class="st24" d="M109.7,90.4c0.1-0.5,0.2-0.6,0.4-0.4c0.6,1.4-2.3,3.8-2.2,4c-0.7,0.6-0.7,0.5-0.1-0.4
	C109,92.1,109.6,91,109.7,90.4z"/>
<path class="st24" d="M112.1,93.8c0.8-0.8,0.8-0.5-0.1,0.7c-0.2,0.3-0.5,0.5-0.8,0.5C110.8,95.1,111.1,94.7,112.1,93.8z"/>
<path class="st22" d="M55.8,102.2c-2.8-2.3-4.4-5.1-6-7.9c-0.9-0.9-0.8-1.1,0.1-0.7c2.2,3,3.8,6.4,6,8.4
	C57.4,103.5,57.4,103.5,55.8,102.2z"/>
<path class="st24" d="M39.2,96.4c-1.3,0-2.3-2.9-1.2-2.6C38.3,94.5,41.4,97.1,39.2,96.4z"/>
<path class="st20" d="M39.8,108.5c-3.1-3.3-5.4-7.1-6.8-11.4c-0.7-3.4-2.8-1-3.5-2.8c6.1-1.6,5.6,8.5,9.6,11.5
	C40.4,106.7,42.5,106.9,39.8,108.5z"/>
<path class="st22" d="M108.1,97.6c3.7-1.5-7.4,9.9-9.3,8.8C102,104,106.2,101.6,108.1,97.6z"/>
<path class="st25" d="M96.1,98.1c1.3,0.5,1,0.8-0.8,0.7C94.4,98.4,95.3,97.5,96.1,98.1z"/>
<path class="st25" d="M45.4,106.6c-1.9-1.6-6.7-6.5-5.8-7.9c1.7,2.8,3.5,5.6,6.5,7.8C47,107.1,45.8,106.9,45.4,106.6z"/>
<path class="st24" d="M125.4,99.4c-0.3,0.9-2.9,2.2-1.6,0.3C124.2,99.2,126.5,98,125.4,99.4z"/>
<path class="st21" d="M81,104.7c-0.2,0-0.2,0.1-0.3,0.3l-0.4-3.3C81.3,99.8,81,104.1,81,104.7z"/>
<path class="st18" d="M94.3,103.6c-0.6,0.6-1-0.1-0.4-0.4C95.7,102.3,95.9,102.4,94.3,103.6z"/>
<path class="st22" d="M81,104.7c1,0.3,1.3,11.4-0.2,9.8c0,0-0.1-9.5-0.1-9.5C80.8,104.8,80.8,104.8,81,104.7z"/>
<path class="st20" d="M112.5,106.2c-0.5-0.8-5.4,0-3.7-0.9c6.8-2.8,7.5,9.5,13.7,3.2c0.6-0.7,0.9,0,0.4,0.4
	C117.9,114.7,115.9,109.2,112.5,106.2z"/>
<path class="st21" d="M50,106.6c-2.3-2.4,4.4,2.7,4.7,2.8C54.2,110,51.2,108,50,106.6z"/>
<path class="st25" d="M74.3,112.2c3.1,2.1-11.3-3.5-10.9-4.9C67.4,108.8,71.3,111.8,74.3,112.2z"/>
<path class="st23" d="M54,111.6c-2.5-0.6-4.9-4.2-7.6-2.1c-1.9,1.3-1.7,2.9,0.5,4.8c10.5,3.4,23.8,14.5,35.2,9.4
	c1.7-0.8,1.9-0.7,0.8,0.3c-8.1,4.1-14.5,0.9-22.7-2.6c-3.5-3.6-14.3-3.5-15.8-9.7c1.4-9.3,14.2,3.2,20.6,2.3c1.8,0.2,2,0.5,0.5,0.7
	c-2-0.3-3.9-0.8-6-0.7C58.2,114,55.9,112.2,54,111.6z"/>
<path class="st22" d="M107.2,110.9c-0.1-1.4,2.2-3.2,3.2-1.9c-0.1,0.3-0.6,0.5-1.6,0.6c-2.3,1.4,0,6.1-4.9,8.1
	c-0.2,0.1-0.5-0.1-0.2-0.3C105.6,115.9,106.8,113.8,107.2,110.9z"/>
<path class="st21" d="M125.2,109.7c0-0.6,0.2-0.8,0.6-0.7C126.6,109.6,124.9,111.8,125.2,109.7z"/>
<path class="st19" d="M0.6,131.8c0,0.1-0.1,0.2-0.2,0.2c-0.1,0-0.2-0.1-0.2-0.2c0.2-0.2-0.3-21.5,0.2-21.4c0.1,0,0.2,0.1,0.2,0.2
	l0,0V131.8z"/>
<path class="st20" d="M113,122.2c0.1-8.2-12.7,12.9-24.6,9.5c8.7-1.8,15.9-4.7,21.5-11.5c3.5-2.8,5.7-5,6.9-7c0.5-1.3,1-0.3,0.5,0.3
	c0,0-4.1,5.4-4.1,5.4C112.8,119.4,115.1,124,113,122.2z"/>
<path class="st18" d="M120.3,113.7c0.2-0.9,3-2.1,1.4-0.3c0,0-1.6,1.9-1.6,1.9C119.1,116.1,120.1,114,120.3,113.7z"/>
<path class="st26" d="M97.8,115.6c-2.3,0.9,1.9-1.3,2.4-2.1C102,112.1,98.7,115.7,97.8,115.6z"/>
<path class="st23" d="M69.6,120.4c6.9,0.6,13.6-1.1,20.1-5c0.5-0.3,1.3-0.2,0.4,0.4c-11.8,7.6-23.7,7.5-35.6,0.2
	c-1.7-0.8-1.6-1,0.2-0.7C59.7,118.1,64.7,120.1,69.6,120.4z"/>
<path class="st26" d="M90.6,119.6c-0.7,1.1-3.9,3.3-4.4,2.6c3-2.2,6.1-4.3,9.5-5.9C98.3,115.9,89.9,119.1,90.6,119.6z"/>
<path class="st24" d="M104.4,119.7c-3.2,1.8,2.8-2.7,3.6-3.3C109.5,116.4,105.2,119.3,104.4,119.7z"/>
<path class="st25" d="M96.9,119.8c-0.4,0.5-0.9,0-0.4-0.3C100.6,117.4,99.3,118,96.9,119.8z"/>
<path class="st24" d="M52,120.2l0.1,0.2c-1.1,2.4-4.3,5.2-6.3,5.2C45.7,125.7,52,120.2,52,120.2z"/>
<path class="st18" d="M98.8,122.2c0.5-0.3,2.5,0.4,1.5,0.7C99.8,123,97.8,122.5,98.8,122.2z"/>
<path class="st24" d="M87.9,126.1c-0.5,0.9-0.7,0.9-0.5-0.1c0.3-1.7,9.3-3.6,8.5-1.3c-0.9-0.2-1.7-1.2-2.7-0.4
	C91.4,124.9,89.2,124.6,87.9,126.1z"/>
<path class="st24" d="M112.5,124c0.8,0,0.9,0.3,0.2,1C110.4,125.6,110.3,125.3,112.5,124z"/>
<path class="st24" d="M59,127.7c-1.2-0.5-0.9-0.7,1-0.5C61.1,127.4,59.6,128.2,59,127.7z"/>
<path class="st24" d="M107,127.8c0.5-0.8,0.7-0.8,0.5,0C103.2,132.1,103,132,107,127.8z"/>
<path class="st18" d="M63.8,128.6c1.4-1,0.2,2.9-0.1,0.6C63.7,129,63.7,128.8,63.8,128.6z"/>
<path class="st21" d="M68.2,131.5c-2.4,4.2-2.5,0.7,0.2-0.8C72.5,128.6,71.1,129.3,68.2,131.5z"/>
<path class="st25" d="M98.1,133.7c-0.6,0.3-1.1,0.3-1.4,0C95.8,132.9,100.8,132.6,98.1,133.7z"/>
</svg>
